# xmcd CD database file
#
# Track frame offsets:
#	150
#	51824
#	92910
#	122090
#
# Disc length: 2035 seconds
#
# Revision: 0
# Processed by: cddbd v1.5.2PL0 Copyright (c) Steve Scherf et al.
# Submitted via: CDex 1.70beta2
#
DISCID=2f07f104
DTITLE=Eple Trio - In The Clearing/In The Cavern [CD2]
DYEAR=2010
DGENRE=Jazz
TTITLE0=Birds Of India
TTITLE1=Kolviken
TTITLE2=In The Cavern
TTITLE3=The Sinking Ship
EXTD=YEAR: 2010
EXTT0=
EXTT1=
EXTT2=
EXTT3=
PLAYORDER=
